<svg width="1920" height="1080" viewBox="0 0 1920 1080" xmlns="http://www.w3.org/2000/svg"><path d="M1760,596.9999999999998C1748.9317636196133,742.8158459316571,1662.402338242463,957.4402515611131,1556.35332749889,1015.8389392193549C1450.304316755317,1074.2376268775968,1235.4957042491285,902.4832179491156,1123.7059355385613,947.3921259494506C1011.9161668279943,992.3010339497856,1005.3594954554494,1274.5512516763813,885.6147152354874,1285.2923872213653C765.8699350155255,1296.0335227663493,517.6730400913708,1131.3876704229158,405.23725421878953,1011.8389392193549C292.8014683462083,892.290208015794,218.33333333333337,718.7796464064518,211,568.0000000000001C203.66666666666663,417.2203535935485,257.0545331590239,224.36392521455383,361.2372542187893,107.16106078064524C465.4199752785547,-10.041803653263344,697.6591282298986,-110.35889271200081,836.0963263585925,-135.2171866034514C974.5335244872864,-160.075480494902,1060.7493730871834,-88.01554427353537,1191.860442990953,-41.98870256805833C1322.9715128947228,4.038139137418717,1528.072819613036,34.44574653473454,1622.7627457812105,140.94386362941088C1717.452671949385,247.44198072408722,1771.0682363803867,451.1841540683424,1760,596.9999999999998C1748.9317636196133,742.8158459316571,1662.402338242463,957.4402515611131,1556.35332749889,1015.8389392193549" fill="#202454"/></svg>